<svg width="36" height="36" viewBox="0 0 36 36" fill="none" xmlns="http://www.w3.org/2000/svg">
<path opacity="0.3" fill-rule="evenodd" clip-rule="evenodd" d="M30.05 21V3C25.2037 3 21.275 6.92871 21.275 11.775V18.2574L12.2491 9C9.9645 11.3431 9.9645 15.1421 12.2491 17.4853L19.7802 25.2095L23.8845 21H30.05Z" fill="#99EFD0"/>
<path fill-rule="evenodd" clip-rule="evenodd" d="M7.26249 18C4.50107 18 2.26249 20.2386 2.26249 23V26.5C2.26249 29.2614 4.50106 31.5 7.26249 31.5H29.4375C32.1989 31.5 34.4375 29.2614 34.4375 26.5V23C34.4375 20.2386 32.1989 18 29.4375 18H7.26249ZM31.5125 24.75C31.5125 25.9926 30.5303 27 29.3188 27C28.1072 27 27.125 25.9926 27.125 24.75C27.125 23.5074 28.1072 22.5 29.3188 22.5C30.5303 22.5 31.5125 23.5074 31.5125 24.75Z" fill="#99EFD0"/>
</svg>
