<svg width="36" height="36" viewBox="0 0 36 36" fill="none" xmlns="http://www.w3.org/2000/svg">
<path opacity="0.3" fill-rule="evenodd" clip-rule="evenodd" d="M11.2871 28.3938L9.41909 30.7023C5.75996 27.5875 3.59995 22.9731 3.59995 18C3.59995 13.0339 5.75395 8.42518 9.40441 5.3103L11.2751 7.61653C8.28571 10.1673 6.52495 13.9346 6.52495 18C6.52495 22.0711 8.29063 25.843 11.2871 28.3938ZM25.1628 28.3938L27.0309 30.7023C30.69 27.5875 32.85 22.9731 32.85 18C32.85 13.0339 30.696 8.42518 27.0456 5.3103L25.1749 7.61653C28.1643 10.1673 29.925 13.9346 29.925 18C29.925 22.0711 28.1593 25.843 25.1628 28.3938ZM21.411 23.7899L23.2719 26.1045C25.6148 24.123 27 21.1761 27 18C27 14.8344 25.6239 11.8961 23.2942 9.91448L21.427 12.2237C23.0936 13.6413 24.075 15.7368 24.075 18C24.075 20.2707 23.0871 22.3724 21.411 23.7899ZM13.178 26.1045L15.0389 23.7899C13.3629 22.3724 12.375 20.2707 12.375 18C12.375 15.7368 13.3564 13.6413 15.023 12.2237L13.1558 9.91448C10.826 11.8961 9.44996 14.8344 9.44996 18C9.44996 21.1761 10.8352 24.123 13.178 26.1045Z" fill="#99EFD0"/>
<path fill-rule="evenodd" clip-rule="evenodd" d="M18.225 21C19.8404 21 21.15 19.6569 21.15 18C21.15 16.3431 19.8404 15 18.225 15C16.6095 15 15.3 16.3431 15.3 18C15.3 19.6569 16.6095 21 18.225 21Z" fill="#99EFD0"/>
</svg>
