<svg width="421" height="613" viewBox="0 0 421 613" fill="none" xmlns="http://www.w3.org/2000/svg">
<g opacity="0.2">
<path d="M88.0094 177.907C86.1226 179.028 83.7198 178.382 82.6441 176.464C81.5685 174.547 82.2264 172.083 84.1132 170.962C86 169.84 88.4029 170.486 89.4786 172.404C90.5423 174.3 89.8963 176.786 88.0094 177.907Z" fill="url(#paint0_linear_1:264)"/>
<path d="M8.61667 219.508L9.25916 220.65L84.3921 176.15L83.7496 175.009L8.61667 219.508Z" fill="url(#paint1_linear_1:264)"/>
<path d="M84.5855 390.94C82.6987 392.061 80.2958 391.415 79.2202 389.498C78.1445 387.581 78.8024 385.116 80.6892 383.995C82.5761 382.874 84.9789 383.52 86.0546 385.437C87.1302 387.354 86.4723 389.819 84.5855 390.94Z" fill="url(#paint2_linear_1:264)"/>
<path d="M5.20474 432.563L5.84723 433.705L81.001 389.193L80.3586 388.051L5.20474 432.563Z" fill="url(#paint3_linear_1:264)"/>
<path d="M139.863 178.136C137.976 179.257 135.574 178.611 134.498 176.694C133.422 174.776 134.08 172.312 135.967 171.191C137.854 170.07 140.257 170.715 141.332 172.633C142.408 174.55 141.75 177.015 139.863 178.136Z" fill="url(#paint4_linear_1:264)"/>
<path d="M60.4705 219.738L61.113 220.879L136.246 176.38L135.604 175.238L60.4705 219.738Z" fill="url(#paint5_linear_1:264)"/>
<path d="M56.3139 108.552C54.4271 109.673 52.0242 109.027 50.9485 107.11C49.8729 105.192 50.5308 102.728 52.4176 101.607C54.3045 100.485 56.7074 101.131 57.783 103.049C58.8467 104.945 58.2007 107.431 56.3139 108.552Z" fill="url(#paint6_linear_1:264)"/>
<path d="M14.4835 127.91L15.126 129.052L52.6965 106.796L52.054 105.654L14.4835 127.91Z" fill="url(#paint7_linear_1:264)"/>
<path d="M156.943 230.918C155.056 232.039 152.654 231.393 151.578 229.476C150.502 227.559 151.16 225.094 153.047 223.973C154.934 222.852 157.337 223.498 158.412 225.415C159.488 227.333 158.83 229.797 156.943 230.918Z" fill="url(#paint8_linear_1:264)"/>
<path d="M77.5625 272.541L78.205 273.683L153.359 229.171L152.716 228.029L77.5625 272.541Z" fill="url(#paint9_linear_1:264)"/>
<path d="M87.5575 429.732C85.6707 430.853 83.2678 430.207 82.1921 428.29C81.1165 426.372 81.7744 423.908 83.6613 422.787C85.5481 421.666 87.9509 422.312 89.0266 424.229C90.1022 426.146 89.4443 428.611 87.5575 429.732Z" fill="url(#paint10_linear_1:264)"/>
<path d="M8.18564 471.321L8.82812 472.463L83.9611 427.963L83.3186 426.822L8.18564 471.321Z" fill="url(#paint11_linear_1:264)"/>
<path d="M60.5466 154.131C58.6598 155.252 56.2569 154.606 55.1813 152.689C54.1056 150.771 54.7636 148.307 56.6504 147.186C58.5372 146.065 60.9401 146.711 62.0157 148.628C63.1123 150.533 62.4544 152.997 60.5466 154.131Z" fill="url(#paint12_linear_1:264)"/>
<path d="M-18.8132 195.742L-18.1707 196.883L56.9831 152.371L56.3406 151.23L-18.8132 195.742Z" fill="url(#paint13_linear_1:264)"/>
<path d="M101.083 516.781C99.1964 517.902 96.7935 517.256 95.7178 515.339C94.6422 513.421 95.3001 510.957 97.1869 509.836C99.0737 508.715 101.477 509.361 102.552 511.278C103.628 513.195 102.97 515.66 101.083 516.781Z" fill="url(#paint14_linear_1:264)"/>
<path d="M21.7024 558.404L22.3449 559.546L97.4987 515.034L96.8562 513.892L21.7024 558.404Z" fill="url(#paint15_linear_1:264)"/>
<path d="M344.491 210.182C342.604 211.303 340.201 210.658 339.125 208.74C338.05 206.823 338.707 204.358 340.594 203.237C342.481 202.116 344.884 202.762 345.96 204.68C347.056 206.584 346.377 209.061 344.491 210.182Z" fill="url(#paint16_linear_1:264)"/>
<path d="M81.0123 360.82L81.6548 361.961L340.906 208.435L340.264 207.294L81.0123 360.82Z" fill="url(#paint17_linear_1:264)"/>
<path d="M375.236 297.422C373.349 298.544 370.946 297.898 369.87 295.98C368.795 294.063 369.453 291.598 371.339 290.477C373.226 289.356 375.629 290.002 376.705 291.92C377.801 293.824 377.143 296.289 375.236 297.422Z" fill="url(#paint18_linear_1:264)"/>
<path d="M-26.9226 530.151L-26.2802 531.293L371.66 295.641L371.018 294.5L-26.9226 530.151Z" fill="url(#paint19_linear_1:264)"/>
<path d="M112.78 150.14C110.893 151.261 108.49 150.615 107.414 148.698C106.339 146.781 106.997 144.316 108.883 143.195C110.77 142.074 113.173 142.72 114.249 144.637C115.324 146.555 114.667 149.019 112.78 150.14Z" fill="url(#paint20_linear_1:264)"/>
<path d="M-150.699 300.778L-150.056 301.919L109.195 148.393L108.553 147.251L-150.699 300.778Z" fill="url(#paint21_linear_1:264)"/>
<path d="M241.664 199.129C239.777 200.25 237.374 199.604 236.298 197.687C235.223 195.769 235.881 193.305 237.767 192.184C239.654 191.063 242.057 191.709 243.133 193.626C244.229 195.531 243.55 198.008 241.664 199.129Z" fill="url(#paint22_linear_1:264)"/>
<path d="M-21.806 349.733L-21.1635 350.874L238.088 197.348L237.445 196.206L-21.806 349.733Z" fill="url(#paint23_linear_1:264)"/>
<path d="M300.847 353.743C298.96 354.864 296.557 354.219 295.481 352.301C294.406 350.384 295.064 347.919 296.95 346.798C298.837 345.677 301.24 346.323 302.316 348.24C303.391 350.158 302.733 352.622 300.847 353.743Z" fill="url(#paint24_linear_1:264)"/>
<path d="M37.3684 504.381L38.0109 505.522L297.262 351.996L296.62 350.854L37.3684 504.381Z" fill="url(#paint25_linear_1:264)"/>
<path d="M-0.998789 244.34C-2.8856 245.461 -5.28848 244.815 -6.36413 242.898C-7.43978 240.98 -6.78183 238.516 -4.89503 237.395C-3.00822 236.274 -0.60534 236.919 0.470307 238.837C1.56692 240.742 0.908982 243.206 -0.998789 244.34Z" fill="url(#paint26_linear_1:264)"/>
<path d="M162.775 354.371C160.889 355.492 158.486 354.846 157.41 352.929C156.334 351.011 156.992 348.547 158.879 347.426C160.766 346.305 163.169 346.95 164.244 348.868C165.32 350.785 164.662 353.25 162.775 354.371Z" fill="url(#paint27_linear_1:264)"/>
<path d="M15.1025 436.405L15.745 437.547L159.179 352.602L158.537 351.46L15.1025 436.405Z" fill="url(#paint28_linear_1:264)"/>
</g>
<defs>
<linearGradient id="paint0_linear_1:264" x1="66.8126" y1="185.851" x2="6.57561" y2="219.644" gradientUnits="userSpaceOnUse">
<stop stop-color="#A4FFFF"/>
<stop offset="1" stop-color="#A4FFFF" stop-opacity="0"/>
</linearGradient>
<linearGradient id="paint1_linear_1:264" x1="66.9009" y1="185.754" x2="7.02829" y2="219.451" gradientUnits="userSpaceOnUse">
<stop stop-color="#A4FFFF"/>
<stop offset="1" stop-color="#A4FFFF" stop-opacity="0"/>
</linearGradient>
<linearGradient id="paint2_linear_1:264" x1="63.3955" y1="398.901" x2="3.14039" y2="432.704" gradientUnits="userSpaceOnUse">
<stop stop-color="#A4FFFF"/>
<stop offset="1" stop-color="#A4FFFF" stop-opacity="0"/>
</linearGradient>
<linearGradient id="paint3_linear_1:264" x1="63.4927" y1="398.802" x2="3.61723" y2="432.5" gradientUnits="userSpaceOnUse">
<stop stop-color="#A4FFFF"/>
<stop offset="1" stop-color="#A4FFFF" stop-opacity="0"/>
</linearGradient>
<linearGradient id="paint4_linear_1:264" x1="118.676" y1="186.078" x2="58.4557" y2="219.862" gradientUnits="userSpaceOnUse">
<stop stop-color="#A4FFFF"/>
<stop offset="1" stop-color="#A4FFFF" stop-opacity="0"/>
</linearGradient>
<linearGradient id="paint5_linear_1:264" x1="118.761" y1="185.985" x2="58.8881" y2="219.681" gradientUnits="userSpaceOnUse">
<stop stop-color="#A4FFFF"/>
<stop offset="1" stop-color="#A4FFFF" stop-opacity="0"/>
</linearGradient>
<linearGradient id="paint6_linear_1:264" x1="35.1159" y1="116.495" x2="-25.1211" y2="150.289" gradientUnits="userSpaceOnUse">
<stop stop-color="#A4FFFF"/>
<stop offset="1" stop-color="#A4FFFF" stop-opacity="0"/>
</linearGradient>
<linearGradient id="paint7_linear_1:264" x1="43.799" y1="111.312" x2="13.856" y2="128.161" gradientUnits="userSpaceOnUse">
<stop stop-color="#A4FFFF"/>
<stop offset="1" stop-color="#A4FFFF" stop-opacity="0"/>
</linearGradient>
<linearGradient id="paint8_linear_1:264" x1="135.756" y1="238.865" x2="75.5191" y2="272.658" gradientUnits="userSpaceOnUse">
<stop stop-color="#A4FFFF"/>
<stop offset="1" stop-color="#A4FFFF" stop-opacity="0"/>
</linearGradient>
<linearGradient id="paint9_linear_1:264" x1="135.847" y1="238.771" x2="75.9732" y2="272.468" gradientUnits="userSpaceOnUse">
<stop stop-color="#A4FFFF"/>
<stop offset="1" stop-color="#A4FFFF" stop-opacity="0"/>
</linearGradient>
<linearGradient id="paint10_linear_1:264" x1="66.3693" y1="437.676" x2="6.13239" y2="471.469" gradientUnits="userSpaceOnUse">
<stop stop-color="#A4FFFF"/>
<stop offset="1" stop-color="#A4FFFF" stop-opacity="0"/>
</linearGradient>
<linearGradient id="paint11_linear_1:264" x1="66.4612" y1="437.582" x2="6.58879" y2="471.278" gradientUnits="userSpaceOnUse">
<stop stop-color="#A4FFFF"/>
<stop offset="1" stop-color="#A4FFFF" stop-opacity="0"/>
</linearGradient>
<linearGradient id="paint12_linear_1:264" x1="39.3658" y1="162.078" x2="-20.889" y2="195.882" gradientUnits="userSpaceOnUse">
<stop stop-color="#A4FFFF"/>
<stop offset="1" stop-color="#A4FFFF" stop-opacity="0"/>
</linearGradient>
<linearGradient id="paint13_linear_1:264" x1="39.4612" y1="161.98" x2="-20.412" y2="195.676" gradientUnits="userSpaceOnUse">
<stop stop-color="#A4FFFF"/>
<stop offset="1" stop-color="#A4FFFF" stop-opacity="0"/>
</linearGradient>
<linearGradient id="paint14_linear_1:264" x1="79.8892" y1="524.734" x2="19.6524" y2="558.528" gradientUnits="userSpaceOnUse">
<stop stop-color="#A4FFFF"/>
<stop offset="1" stop-color="#A4FFFF" stop-opacity="0"/>
</linearGradient>
<linearGradient id="paint15_linear_1:264" x1="79.9797" y1="524.638" x2="20.1057" y2="558.335" gradientUnits="userSpaceOnUse">
<stop stop-color="#A4FFFF"/>
<stop offset="1" stop-color="#A4FFFF" stop-opacity="0"/>
</linearGradient>
<linearGradient id="paint16_linear_1:264" x1="309.044" y1="226.604" x2="201.768" y2="286.787" gradientUnits="userSpaceOnUse">
<stop stop-color="#A4FFFF"/>
<stop offset="1" stop-color="#A4FFFF" stop-opacity="0"/>
</linearGradient>
<linearGradient id="paint17_linear_1:264" x1="282.853" y1="242.042" x2="86.7306" y2="352.435" gradientUnits="userSpaceOnUse">
<stop stop-color="#A4FFFF"/>
<stop offset="1" stop-color="#A4FFFF" stop-opacity="0"/>
</linearGradient>
<linearGradient id="paint18_linear_1:264" x1="339.791" y1="313.836" x2="232.515" y2="374.019" gradientUnits="userSpaceOnUse">
<stop stop-color="#A4FFFF"/>
<stop offset="1" stop-color="#A4FFFF" stop-opacity="0"/>
</linearGradient>
<linearGradient id="paint19_linear_1:264" x1="282.716" y1="347.562" x2="-18.3176" y2="517.012" gradientUnits="userSpaceOnUse">
<stop stop-color="#A4FFFF"/>
<stop offset="1" stop-color="#A4FFFF" stop-opacity="0"/>
</linearGradient>
<linearGradient id="paint20_linear_1:264" x1="77.334" y1="166.573" x2="-29.9422" y2="226.756" gradientUnits="userSpaceOnUse">
<stop stop-color="#A4FFFF"/>
<stop offset="1" stop-color="#A4FFFF" stop-opacity="0"/>
</linearGradient>
<linearGradient id="paint21_linear_1:264" x1="51.1431" y1="182.011" x2="-144.979" y2="292.404" gradientUnits="userSpaceOnUse">
<stop stop-color="#A4FFFF"/>
<stop offset="1" stop-color="#A4FFFF" stop-opacity="0"/>
</linearGradient>
<linearGradient id="paint22_linear_1:264" x1="206.214" y1="215.545" x2="98.9384" y2="275.728" gradientUnits="userSpaceOnUse">
<stop stop-color="#A4FFFF"/>
<stop offset="1" stop-color="#A4FFFF" stop-opacity="0"/>
</linearGradient>
<linearGradient id="paint23_linear_1:264" x1="180.022" y1="230.983" x2="-16.099" y2="341.376" gradientUnits="userSpaceOnUse">
<stop stop-color="#A4FFFF"/>
<stop offset="1" stop-color="#A4FFFF" stop-opacity="0"/>
</linearGradient>
<linearGradient id="paint24_linear_1:264" x1="265.397" y1="370.168" x2="158.12" y2="430.351" gradientUnits="userSpaceOnUse">
<stop stop-color="#A4FFFF"/>
<stop offset="1" stop-color="#A4FFFF" stop-opacity="0"/>
</linearGradient>
<linearGradient id="paint25_linear_1:264" x1="239.207" y1="385.606" x2="43.085" y2="496" gradientUnits="userSpaceOnUse">
<stop stop-color="#A4FFFF"/>
<stop offset="1" stop-color="#A4FFFF" stop-opacity="0"/>
</linearGradient>
<linearGradient id="paint26_linear_1:264" x1="-36.4535" y1="260.763" x2="-143.763" y2="320.964" gradientUnits="userSpaceOnUse">
<stop stop-color="#A4FFFF"/>
<stop offset="1" stop-color="#A4FFFF" stop-opacity="0"/>
</linearGradient>
<linearGradient id="paint27_linear_1:264" x1="127.324" y1="370.79" x2="20.0805" y2="430.955" gradientUnits="userSpaceOnUse">
<stop stop-color="#A4FFFF"/>
<stop offset="1" stop-color="#A4FFFF" stop-opacity="0"/>
</linearGradient>
<linearGradient id="paint28_linear_1:264" x1="126.915" y1="370.962" x2="18.4008" y2="432.04" gradientUnits="userSpaceOnUse">
<stop stop-color="#A4FFFF"/>
<stop offset="1" stop-color="#A4FFFF" stop-opacity="0"/>
</linearGradient>
</defs>
</svg>
